# xmcd
#
# Track frame offsets:
#	150
#	19758
#	35406
#	54706
#	67916
#	85316
#	106634
#	126816
#	143226
#	159816
#	182962
#
# Disc length: 2814 seconds
#
# Revision: 0
# Processed by: cddbd v1.5.1PL0 Copyright (c) Steve Scherf et al.
# Submitted via: dBpowerAMP V4.0
#
DISCID=890afc0b
DTITLE=The Believers - Crashyertown
DYEAR=1900
DGENRE=Americana
TTITLE0=Railroad Spikes and Shotgun Shells
TTITLE1=Get Started
TTITLE2=Crashyertown
TTITLE3=Subterranean Homesick Blues
TTITLE4=Good Days
TTITLE5=Jordan
TTITLE6=That's Alright
TTITLE7=Highway Song
TTITLE8=Nobody's Business
TTITLE9=Long Way To Heaven
TTITLE10=Fast Train
EXTD=
EXTT0=
EXTT1=
EXTT2=
EXTT3=
EXTT4=
EXTT5=
EXTT6=
EXTT7=
EXTT8=
EXTT9=
EXTT10=
PLAYORDER=
